<?xml version="1.0" encoding="utf-8"?>
<!-- Generator: Adobe Illustrator 22.0.1, SVG Export Plug-In . SVG Version: 6.00 Build 0)  -->
<svg version="1.1" id="Laag_1" xmlns="http://www.w3.org/2000/svg" xmlns:xlink="http://www.w3.org/1999/xlink" x="0px" y="0px"
	 viewBox="0 0 1209 246.8" style="enable-background:new 0 0 1209 246.8;" xml:space="preserve">
<style type="text/css">
	.st0{fill:#FFFC00;}
	.st1{fill:#FFFFFF;}
	.st2{fill:#020202;}
	.st3{fill:none;}
</style>
<path class="st0" d="M0,181L0,181c0.1,5.3,0.2,10.7,1.1,16c1,5.6,2.3,11.1,4.9,16.1c3.5,6.9,8.3,12.7,14.4,17.4
	c4.4,3.4,9.1,6.1,14.4,7.8c7.7,2.5,15.6,3.4,23.7,3.5c5,0,10.1,0.2,15.1,0.1c36.5-0.2,73.1,0.3,109.6-0.2c4.8-0.1,9.6-0.7,14.4-1.5
	c9.1-1.7,17.2-5.6,24.1-11.7c8-7.2,13.5-15.9,15.9-26.5c1.6-6.9,2-13.9,2.1-21v-1.4c0-0.5-0.2-119.7-0.2-121.3
	c-0.1-4.3-0.4-8.6-1.2-12.9c-1-5.2-2.4-10.2-4.9-14.9c-2.6-5-5.9-9.4-10-13.3c-6.2-6-13.4-10.2-21.8-12.4c-7.6-2-15.3-2.5-23-2.5
	c0,0,0-0.1,0-0.1H61c0,0,0,0.1,0,0.1c-4.4,0.1-8.8,0-13.2,0.6C43,3.5,38.3,4.4,33.7,6.1C26.6,8.7,20.4,12.8,15,18.3
	C9,24.6,4.8,31.8,2.5,40.2c-2,7.5-2.4,15.1-2.5,22.8"/>
<path class="st1" d="M120.9,204.5c-0.5,0-1,0-1.3,0c-0.3,0-0.6,0-0.9,0c-10.5,0-17.4-4.9-23.6-9.3c-4.4-3.1-8.6-6.1-13.5-6.9
	c-2.4-0.4-4.8-0.6-7.1-0.6c-4.2,0-7.4,0.6-9.8,1.1c-1.5,0.3-2.7,0.5-3.7,0.5c-1,0-2.3-0.2-2.8-2c-0.4-1.4-0.7-2.8-1-4.1
	c-0.7-3.3-1.2-5.3-2.5-5.5c-13.1-2-20.9-5-22.4-8.6c-0.2-0.4-0.2-0.7-0.3-1.1c-0.1-1.1,0.7-2,1.8-2.2c10.4-1.7,19.7-7.2,27.5-16.4
	c6.1-7.1,9.1-13.8,9.4-14.6c0,0,0-0.1,0-0.1c1.5-3.1,1.8-5.7,0.9-7.9c-1.7-4-7.3-5.8-11-6.9c-0.9-0.3-1.8-0.6-2.5-0.8
	c-3.3-1.3-8.7-4-8-7.8c0.5-2.8,4.2-4.7,7.1-4.7c0.8,0,1.5,0.1,2.2,0.4c3.3,1.6,6.3,2.4,8.9,2.4c3.2,0,4.8-1.2,5.1-1.6
	c-0.1-1.7-0.2-3.5-0.3-5.2c-0.8-12-1.7-26.9,2.1-35.4c11.4-25.6,35.6-27.5,42.7-27.5c1.2,0,2.4,0,3.5,0c7.2,0,31.4,2,42.8,27.6
	c3.8,8.5,2.9,23.4,2.1,35.4l0,0.6c-0.1,1.6-0.2,3.2-0.3,4.7c0.4,0.3,1.8,1.4,4.6,1.6c2.5-0.1,5.3-0.9,8.4-2.3c1-0.5,2-0.5,2.7-0.5
	c1.1,0,2.2,0.2,3.1,0.6l0,0c2.6,0.9,4.4,2.8,4.4,4.8c0,1.8-1.3,4.6-8,7.2c-0.7,0.3-1.6,0.5-2.5,0.8c-3.7,1.2-9.3,3-11,6.9
	c-0.9,2.2-0.6,4.8,0.9,7.9c0,0,0,0.1,0,0.1c0.5,1.1,11.7,26.8,36.9,31c1.1,0.2,1.8,1.1,1.8,2.2c0,0.4-0.1,0.8-0.3,1.1
	c-1.5,3.6-9.3,6.6-22.4,8.6c-1.2,0.2-1.7,2.2-2.5,5.4c-0.3,1.3-0.6,2.7-1,4c-0.4,1.3-1.2,1.9-2.6,1.9h-0.2c-0.9,0-2.1-0.2-3.7-0.5
	c-2.8-0.5-5.9-1-9.8-1c-2.3,0-4.7,0.2-7.1,0.6c-4.9,0.8-9,3.8-13.5,6.9C138.3,199.6,131.4,204.5,120.9,204.5"/>
<path class="st2" d="M121.5,41.8c6.7,0,29.9,1.8,40.9,26.3c3.6,8.1,2.7,22.7,1.9,34.4c-0.1,1.9-0.2,3.7-0.3,5.4l0,0.7l0.5,0.6
	c0.2,0.2,2.1,2.2,6.2,2.3l0.1,0l0.1,0c2.8-0.1,5.9-1,9.2-2.5c0.5-0.2,1.2-0.3,1.9-0.3c0.8,0,1.6,0.1,2.3,0.4l0.1,0
	c1.8,0.6,3,1.8,3,2.8c0,0.6-0.4,2.7-6.7,5.2c-0.6,0.2-1.4,0.5-2.3,0.8c-4.1,1.3-10.2,3.2-12.3,8.1c-1.2,2.7-0.8,6,0.9,9.6
	c0.7,1.7,12.4,27.9,38.5,32.2c0,0.1,0,0.3-0.1,0.4c-0.4,1-3.3,4.7-20.8,7.4c-2.7,0.4-3.4,3.5-4.2,7.1c-0.3,1.3-0.6,2.6-1,3.9
	c-0.1,0.4-0.1,0.4-0.6,0.4h-0.2c-0.8,0-2-0.2-3.3-0.4c-2.5-0.5-5.9-1.1-10.2-1.1c-2.4,0-4.9,0.2-7.4,0.6c-5.4,0.9-9.7,4-14.3,7.2
	c-6.2,4.4-12.6,8.9-22.4,8.9c-0.4,0-0.8,0-1.3,0l-0.1,0l-0.1,0c-0.2,0-0.5,0-0.7,0c-9.8,0-16.2-4.5-22.4-8.9
	c-4.6-3.3-9-6.4-14.3-7.2c-2.5-0.4-5-0.6-7.4-0.6c-4.3,0-7.8,0.7-10.2,1.2c-1.4,0.3-2.6,0.5-3.3,0.5c-0.6,0-0.6,0-0.8-0.5
	c-0.4-1.3-0.7-2.7-1-3.9c-0.8-3.6-1.5-6.7-4.2-7.1c-17.5-2.7-20.3-6.3-20.8-7.4c-0.1-0.1-0.1-0.3-0.1-0.4
	c26.1-4.3,37.8-30.5,38.5-32.2c1.8-3.6,2.1-6.9,0.9-9.6c-2.1-4.9-8.2-6.8-12.3-8.1c-0.9-0.3-1.7-0.6-2.4-0.8
	c-5.3-2.1-6.9-4.2-6.7-5.5c0.3-1.5,2.8-3,5-3c0.5,0,0.9,0.1,1.3,0.2c3.6,1.7,6.9,2.5,9.8,2.5c4.5,0,6.6-2.1,6.8-2.4l0.5-0.6l0-0.7
	c-0.1-1.7-0.2-3.5-0.3-5.4c-0.7-11.7-1.7-26.4,1.9-34.4c10.9-24.4,34-26.3,40.8-26.3c0.2,0,3.1,0,3.1,0
	C121.2,41.8,121.4,41.8,121.5,41.8 M121.5,37.6L121.5,37.6c-0.2,0-0.3,0-0.4,0l-3.1,0c-4,0-12,0.6-20.6,4.4
	c-4.9,2.2-9.3,5.1-13.1,8.7c-4.5,4.3-8.2,9.6-11,15.7c-4,9-3.1,24.2-2.3,36.4l0,0c0.1,1.3,0.2,2.7,0.2,4c-0.6,0.3-1.5,0.6-3,0.6
	c-2.3,0-5-0.7-8-2.2c-0.9-0.4-1.9-0.6-3-0.6c-1.8,0-3.7,0.5-5.4,1.5c-2.1,1.2-3.4,3-3.8,4.9c-0.2,1.3-0.2,3.8,2.6,6.3
	c1.5,1.4,3.8,2.7,6.7,3.8c0.8,0.3,1.7,0.6,2.6,0.9c3.3,1.1,8.4,2.7,9.7,5.7c0.7,1.6,0.4,3.6-0.8,6.1c0,0.1-0.1,0.1-0.1,0.2
	c-0.3,0.7-3.2,7.2-9,14.1c-3.3,3.9-7,7.1-10.9,9.7c-4.8,3.1-9.9,5.1-15.3,6c-2.1,0.3-3.6,2.2-3.5,4.4c0,0.6,0.2,1.2,0.4,1.8l0,0
	c0.9,2,2.8,3.7,6.1,5.2c4,1.8,9.9,3.4,17.6,4.6c0.4,0.7,0.8,2.6,1.1,3.9c0.3,1.4,0.6,2.7,1,4.2c0.5,1.6,1.7,3.5,4.8,3.5
	c1.2,0,2.6-0.3,4.1-0.6c2.3-0.5,5.5-1.1,9.4-1.1c2.2,0,4.5,0.2,6.7,0.6c4.4,0.7,8.2,3.4,12.6,6.5c6.4,4.5,13.7,9.7,24.8,9.7
	c0.3,0,0.6,0,0.9,0c0.4,0,0.8,0,1.3,0c11.1,0,18.4-5.1,24.8-9.7l0,0c4.4-3.1,8.2-5.8,12.6-6.5c2.3-0.4,4.6-0.6,6.7-0.6
	c3.8,0,6.8,0.5,9.4,1c1.7,0.3,3.1,0.5,4.1,0.5l0.1,0h0.1c2.3,0,4-1.3,4.6-3.5c0.4-1.4,0.7-2.8,1-4.2c0.3-1.2,0.7-3.1,1.1-3.9
	c7.7-1.2,13.6-2.8,17.6-4.6c3.2-1.5,5.2-3.2,6.1-5.2c0.3-0.6,0.4-1.2,0.4-1.9c0.1-2.1-1.4-4-3.5-4.4c-24-4-34.9-28.7-35.3-29.7
	c0-0.1-0.1-0.1-0.1-0.2c-1.2-2.5-1.5-4.6-0.8-6.1c1.3-3.1,6.3-4.7,9.7-5.7c1-0.3,1.9-0.6,2.6-0.9c3.3-1.3,5.6-2.7,7.2-4.3
	c1.8-1.9,2.2-3.7,2.2-4.9c-0.1-2.9-2.3-5.5-5.8-6.7c-1.2-0.5-2.5-0.7-3.9-0.7c-0.9,0-2.3,0.1-3.6,0.7c-2.8,1.3-5.3,2-7.5,2.1
	c-1.2-0.1-2-0.3-2.5-0.5c0.1-1.1,0.1-2.3,0.2-3.5l0-0.5c0.8-12.2,1.7-27.4-2.3-36.4c-2.8-6.2-6.5-11.5-11-15.8
	c-3.8-3.6-8.2-6.5-13.2-8.7C133.5,38.1,125.5,37.6,121.5,37.6"/>
<path class="st3" d="M0,2.3h239.6v239.6H0V2.3z"/>
<g>
	<path d="M267.8,169.1l3-25.5h-10.1v-12.8h11.6l1.9-15h-10.8v-12.8h12.4l2.9-22.5h11.5l-2.7,22.5h14.2l2.9-22.5H316l-2.7,22.5H324
		v12.8h-12.4l-1.8,15h11.5v12.8h-13l-3.1,25.5h-11.6l3-25.5h-14.1l-3.1,25.5H267.8z M284,130.8h14.1l1.9-15h-14.2L284,130.8z"/>
	<path d="M338.6,169.1v-89h30.4c4.6,0,8.9,0.3,12.9,1c4,0.7,7.4,1.9,10.4,3.6c3,1.7,5.3,4,7,6.8c1.7,2.8,2.5,6.4,2.5,10.6
		c0,2-0.3,4-0.8,6c-0.5,2-1.3,3.9-2.3,5.6c-1,1.7-2.2,3.3-3.6,4.6c-1.4,1.4-3,2.4-4.8,3v0.5c2.3,0.5,4.4,1.4,6.3,2.5
		c1.9,1.1,3.6,2.6,5,4.3c1.5,1.7,2.6,3.8,3.4,6.1c0.8,2.3,1.2,5,1.2,8c0,4.6-0.9,8.5-2.7,11.7c-1.8,3.3-4.2,6-7.4,8.1
		c-3.1,2.1-6.8,3.7-11,4.8c-4.2,1-8.7,1.6-13.5,1.6H338.6z M358.7,115.7h9.4c4.9,0,8.5-1,10.7-2.9c2.2-1.9,3.3-4.5,3.3-7.6
		c0-3.5-1.1-5.9-3.4-7.4c-2.3-1.5-5.8-2.2-10.5-2.2h-9.6V115.7z M358.7,153.5H370c11,0,16.5-4,16.5-12c0-3.9-1.4-6.7-4.1-8.4
		c-2.7-1.7-6.9-2.5-12.4-2.5h-11.3V153.5z"/>
	<path d="M449.9,170.7c-4.8,0-9.3-0.8-13.5-2.4c-4.2-1.6-7.8-3.9-10.9-7c-3.1-3-5.5-6.8-7.2-11.1c-1.7-4.4-2.6-9.4-2.6-15
		c0-5.5,0.9-10.4,2.7-14.8c1.8-4.4,4.2-8.1,7.2-11.2c3-3,6.3-5.4,10.2-7c3.8-1.6,7.8-2.5,11.9-2.5c4.8,0,9,0.8,12.6,2.5
		c3.6,1.6,6.6,3.9,9,6.8c2.4,2.9,4.2,6.3,5.4,10.3c1.2,4,1.8,8.3,1.8,12.9c0,1.8-0.1,3.5-0.3,5.2c-0.2,1.6-0.4,2.9-0.5,3.7H435
		c0.9,4.9,2.9,8.5,6.1,10.9c3.1,2.3,7,3.5,11.5,3.5c4.8,0,9.7-1.5,14.6-4.5l6.7,12.1c-3.5,2.4-7.3,4.2-11.5,5.6
		C458.1,170.1,454,170.7,449.9,170.7z M434.8,127.9h24.4c0-3.8-0.9-6.9-2.6-9.3c-1.7-2.4-4.6-3.5-8.7-3.5c-3.2,0-6,1-8.4,3.1
		C437.1,120.3,435.6,123.5,434.8,127.9z"/>
	<path d="M505.8,170.7c-3.1,0-5.9-0.5-8.4-1.6c-2.5-1-4.6-2.5-6.3-4.4c-1.7-1.9-3.1-4-4-6.5c-1-2.5-1.4-5.1-1.4-8.1
		c0-7.1,3-12.6,9-16.7c6-4,15.7-6.7,29.1-8.1c-0.2-3-1.1-5.4-2.7-7.2c-1.6-1.8-4.3-2.7-8-2.7c-2.9,0-5.8,0.5-8.7,1.6
		c-2.9,1.1-5.9,2.6-9.2,4.5l-7.2-13.2c4.4-2.6,8.9-4.8,13.7-6.4c4.8-1.6,9.8-2.5,15.2-2.5c8.7,0,15.4,2.5,20,7.4
		c4.6,5,6.9,12.7,6.9,23.1v38.8h-16.4l-1.4-7h-0.5c-2.9,2.5-6,4.6-9.1,6.2C513.1,169.9,509.6,170.7,505.8,170.7z M512.6,155.2
		c2.3,0,4.2-0.5,5.9-1.5c1.6-1,3.4-2.4,5.2-4.2v-11.9c-7.1,1-12,2.5-14.7,4.4c-2.7,1.9-4.1,4.2-4.1,6.8c0,2.2,0.7,3.8,2.1,4.8
		C508.4,154.7,510.3,155.2,512.6,155.2z"/>
	<path d="M584.3,170.7c-4.2,0-7.8-0.6-10.7-1.9c-3-1.3-5.4-3-7.2-5.3c-1.9-2.3-3.2-5-4.1-8.3c-0.9-3.2-1.3-6.8-1.3-10.7v-27.4h-9.3
		v-14.9l10.4-0.8l2.3-18H581v18h16.2v15.7H581v27.2c0,3.8,0.8,6.6,2.4,8.3c1.6,1.7,3.7,2.5,6.3,2.5c1.1,0,2.2-0.1,3.3-0.4
		c1.1-0.3,2.2-0.6,3.1-1l3.1,14.6c-1.8,0.5-4,1.1-6.4,1.6C590.4,170.5,587.6,170.7,584.3,170.7z"/>
	<path d="M656.8,169.1V97h-24.4V80.1h69.1V97H677v72.1H656.8z"/>
	<path d="M713.7,169.1V73.4h20.1v23.5l-1,12.1c2.5-2.3,5.5-4.4,8.9-6.3c3.4-2,7.4-2.9,12-2.9c7.4,0,12.7,2.4,16,7.2
		c3.3,4.8,5,11.5,5,20.1v42h-20.1v-39.4c0-4.9-0.7-8.3-2-10.1c-1.3-1.8-3.4-2.7-6.3-2.7c-2.5,0-4.7,0.6-6.6,1.7
		c-1.8,1.1-3.8,2.8-6,4.8v45.7H713.7z"/>
	<path d="M821.9,170.7c-4.8,0-9.3-0.8-13.5-2.4c-4.2-1.6-7.8-3.9-10.9-7c-3.1-3-5.5-6.8-7.2-11.1c-1.7-4.4-2.6-9.4-2.6-15
		c0-5.5,0.9-10.4,2.7-14.8c1.8-4.4,4.2-8.1,7.2-11.2c3-3,6.3-5.4,10.2-7c3.8-1.6,7.8-2.5,11.9-2.5c4.8,0,9,0.8,12.6,2.5
		c3.6,1.6,6.6,3.9,9,6.8c2.4,2.9,4.2,6.3,5.4,10.3c1.2,4,1.8,8.3,1.8,12.9c0,1.8-0.1,3.5-0.3,5.2c-0.2,1.6-0.4,2.9-0.5,3.7H807
		c0.9,4.9,2.9,8.5,6.1,10.9c3.1,2.3,7,3.5,11.5,3.5c4.8,0,9.7-1.5,14.6-4.5l6.7,12.1c-3.5,2.4-7.3,4.2-11.5,5.6
		C830.2,170.1,826,170.7,821.9,170.7z M806.9,127.9h24.4c0-3.8-0.9-6.9-2.6-9.3c-1.7-2.4-4.6-3.5-8.7-3.5c-3.2,0-6,1-8.4,3.1
		C809.2,120.3,807.6,123.5,806.9,127.9z"/>
	<path d="M891.2,169.1v-89h20.1v72.1h35.2v16.9H891.2z"/>
	<path d="M977.4,170.7c-3.1,0-5.9-0.5-8.4-1.6c-2.5-1-4.6-2.5-6.3-4.4c-1.7-1.9-3.1-4-4-6.5c-1-2.5-1.4-5.1-1.4-8.1
		c0-7.1,3-12.6,9-16.7c6-4,15.7-6.7,29.1-8.1c-0.2-3-1.1-5.4-2.7-7.2c-1.6-1.8-4.3-2.7-8-2.7c-2.9,0-5.8,0.5-8.7,1.6
		c-2.9,1.1-5.9,2.6-9.2,4.5l-7.2-13.2c4.4-2.6,8.9-4.8,13.7-6.4c4.8-1.6,9.8-2.5,15.2-2.5c8.7,0,15.4,2.5,20,7.4
		c4.6,5,6.9,12.7,6.9,23.1v38.8h-16.4l-1.4-7H997c-2.9,2.5-6,4.6-9.1,6.2C984.7,169.9,981.2,170.7,977.4,170.7z M984.2,155.2
		c2.3,0,4.2-0.5,5.9-1.5c1.6-1,3.4-2.4,5.2-4.2v-11.9c-7.1,1-12,2.5-14.7,4.4c-2.7,1.9-4.1,4.2-4.1,6.8c0,2.2,0.7,3.8,2.1,4.8
		C979.9,154.7,981.8,155.2,984.2,155.2z"/>
	<path d="M1052.2,170.7c-4.5,0-9-0.9-13.7-2.6c-4.7-1.7-8.8-4-12.2-6.8l9-12.6c3.1,2.4,6.1,4.1,8.9,5.3c2.8,1.2,5.7,1.8,8.6,1.8
		c3,0,5.2-0.5,6.6-1.5c1.4-1,2-2.4,2-4.2c0-1.1-0.4-2.1-1.2-2.9c-0.8-0.9-1.8-1.7-3.1-2.4c-1.3-0.7-2.8-1.4-4.4-2
		c-1.6-0.6-3.3-1.2-5-2c-2.1-0.8-4.2-1.8-6.3-2.9c-2.1-1.1-4-2.4-5.7-4c-1.7-1.6-3.1-3.5-4.2-5.6c-1.1-2.1-1.6-4.6-1.6-7.4
		c0-3.1,0.6-6,1.8-8.6c1.2-2.6,3-4.9,5.3-6.7c2.3-1.8,5-3.3,8.2-4.3c3.2-1,6.7-1.6,10.6-1.6c5.2,0,9.7,0.9,13.6,2.7
		c3.9,1.8,7.3,3.8,10.2,5.9l-9,12c-2.5-1.8-4.9-3.2-7.2-4.2c-2.4-1-4.7-1.5-7.1-1.5c-5.1,0-7.6,1.8-7.6,5.3c0,1.1,0.4,2,1.1,2.8
		c0.7,0.8,1.7,1.5,2.9,2.1c1.2,0.6,2.6,1.3,4.2,1.8c1.6,0.6,3.3,1.2,5,1.8c2.2,0.8,4.3,1.8,6.5,2.8c2.1,1,4.1,2.3,5.9,3.9
		c1.8,1.5,3.2,3.4,4.3,5.7c1.1,2.2,1.6,4.9,1.6,8c0,3.1-0.6,6-1.8,8.6c-1.2,2.6-3,4.9-5.3,6.9c-2.4,2-5.3,3.5-8.7,4.6
		C1060.7,170.2,1056.7,170.7,1052.2,170.7z"/>
	<path d="M1123,170.7c-4.8,0-9.3-0.8-13.5-2.4c-4.2-1.6-7.8-3.9-10.9-7c-3.1-3-5.5-6.8-7.2-11.1c-1.7-4.4-2.6-9.4-2.6-15
		c0-5.5,0.9-10.4,2.7-14.8c1.8-4.4,4.2-8.1,7.2-11.2c3-3,6.3-5.4,10.2-7c3.8-1.6,7.8-2.5,11.9-2.5c4.8,0,9,0.8,12.6,2.5
		c3.6,1.6,6.6,3.9,9,6.8c2.4,2.9,4.2,6.3,5.4,10.3c1.2,4,1.8,8.3,1.8,12.9c0,1.8-0.1,3.5-0.3,5.2c-0.2,1.6-0.4,2.9-0.5,3.7h-40.5
		c0.9,4.9,2.9,8.5,6.1,10.9c3.1,2.3,7,3.5,11.5,3.5c4.8,0,9.7-1.5,14.6-4.5l6.7,12.1c-3.5,2.4-7.3,4.2-11.5,5.6
		C1131.3,170.1,1127.1,170.7,1123,170.7z M1108,127.9h24.4c0-3.8-0.9-6.9-2.6-9.3c-1.7-2.4-4.6-3.5-8.7-3.5c-3.2,0-6,1-8.4,3.1
		C1110.3,120.3,1108.7,123.5,1108,127.9z"/>
	<path d="M1163.4,169.1v-67.7h16.4l1.4,11.9h0.5c2.5-4.6,5.4-8.1,8.9-10.2c3.5-2.2,6.9-3.3,10.4-3.3c1.9,0,3.5,0.1,4.7,0.3
		c1.2,0.2,2.3,0.6,3.3,1l-3.3,17.3c-1.3-0.4-2.5-0.6-3.5-0.8c-1.1-0.2-2.4-0.3-3.8-0.3c-2.5,0-5.2,0.9-8,2.7c-2.8,1.8-5.1,5-6.9,9.7
		v39.3H1163.4z"/>
</g>
</svg>
